:FULLY-SPECIFIED
:FORCE-ALL-JOINTS-BE-3DOF
:DEGREES
408
root 4.49708 16.2801 -11.2323 3.627 -35.8427 -4.33465
lfemur -28.6436 2.82532 -6.61504
ltibia 42.6588 -0 0
lfoot -10.8475 14.252 0.10462
ltoes -1.15993 0 0
rfemur -32.493 -14.6879 22.29
rtibia 69.3048 -0 0
rfoot 4.50623 -0.774853 -0.0504189
rtoes 26.5785 -0 0
lowerback 4.95874 4.06625 1.39786
upperback 1.72247 5.44796 -1.36261
thorax -0.740641 2.72695 -2.45329
lowerneck -6.21187 2.28708 7.73531
upperneck 4.16388 2.37444 0.246895
head 2.55156 1.30944 -1.17594
lclavicle -3.50228e-14 3.64419e-15 4.01415e-30
lhumerus -44.7393 -19.1012 94.3619
lradius 50.1042 -0 0
lwrist 17.3176 0 0
lhand -16.5493 3.17377 0.0552265
lfingers 7.12502 -0 0
lthumb 9.66948 32.9139 0.0507581
rclavicle -3.50228e-14 3.64419e-15 4.01415e-30
rhumerus -45.5427 9.42352 -91.3299
rradius 63.2588 -0 0
rwrist 9.34284 0 0
rhand -21.8647 -18.165 0.0205591
rfingers 7.12502 -0 0
rthumb 4.53878 -48.0448 0.0212972
409
root 4.44219 16.2613 -11.1297 3.43223 -36.1001 -4.22884
lfemur -28.2617 3.26049 -6.65913
ltibia 43.4381 -0 0
lfoot -11.598 13.9394 0.109768
ltoes -1.26728 0 0
rfemur -33.7205 -14.111 21.4345
rtibia 68.6087 -0 0
rfoot 4.88201 -0.594547 -0.0705964
rtoes 26.1015 -0 0
lowerback 5.12488 3.9927 1.45403
upperback 1.75681 5.35288 -1.38848
thorax -0.795662 2.67913 -2.51703
lowerneck -6.22482 2.51181 7.91662
upperneck 4.22155 2.6736 -0.0479267
head 2.59768 1.4537 -1.29215
lclavicle -3.77638e-14 6.75983e-15 4.11948e-30
lhumerus -44.7363 -19.1066 94.4238
lradius 49.8753 -0 0
lwrist 17.0802 0 0
lhand -16.9494 2.9124 0.0605571
lfingers 7.12502 -0 0
lthumb 9.28337 32.6677 0.055572
rclavicle -3.77638e-14 6.75983e-15 4.11948e-30
rhumerus -45.5801 9.14404 -91.0732
rradius 63.792 -0 0
rwrist 9.55351 0 0
rhand -22.5183 -18.2282 0.020656
rfingers 7.12502 -0 0
rthumb 3.90766 -48.1173 0.0215656
410
root 4.38632 16.2418 -11.0295 3.24703 -36.313 -4.13347
lfemur -27.9096 3.73773 -6.69879
ltibia 44.259 -0 0
lfoot -12.3675 13.5883 0.111797
ltoes -1.36392 0 0
rfemur -34.9457 -13.5139 20.5532
rtibia 67.8371 -0 0
rfoot 5.21293 -0.418255 -0.0909755
rtoes 25.5515 -0 0
lowerback 5.29473 3.9137 1.51659
upperback 1.79246 5.25119 -1.41035
thorax -0.851616 2.62794 -2.58017
lowerneck -6.23978 2.73459 8.09386
upperneck 4.27031 2.97074 -0.345891
head 2.64164 1.59666 -1.40868
lclavicle -4.04491e-14 9.92094e-15 4.07454e-30
lhumerus -44.7227 -19.1236 94.488
lradius 49.6516 -0 0
lwrist 16.8322 0 0
lhand -17.367 2.64167 0.064086
lfingers 7.12502 -0 0
lthumb 8.88038 32.4128 0.0587406
rclavicle -4.04491e-14 9.92094e-15 4.07454e-30
rhumerus -45.6108 8.85815 -90.8154
rradius 64.3291 -0 0
rwrist 9.77165 0 0
rhand -23.1744 -18.3005 0.0204405
rfingers 7.12502 -0 0
rthumb 3.27399 -48.1984 0.0214935
411
root 4.32928 16.2216 -10.9316 3.07425 -36.4732 -4.05224
lfemur -27.5924 4.24801 -6.72955
ltibia 45.1112 -0 0
lfoot -13.1484 13.2015 0.110495
ltoes -1.45466 0 0
rfemur -36.1501 -12.9078 19.6535
rtibia 67.0024 -0 0
rfoot 5.4967 -0.251819 -0.110401
rtoes 24.9221 -0 0
lowerback 5.46598 3.83028 1.58462
upperback 1.82854 5.14426 -1.42794
thorax -0.908158 2.57405 -2.64181
lowerneck -6.25648 2.9524 8.26493
upperneck 4.30975 3.26176 -0.643066
head 2.68288 1.73635 -1.52401
lclavicle -4.3035e-14 1.30831e-14 3.88386e-30
lhumerus -44.6989 -19.153 94.5547
lradius 49.4365 -0 0
lwrist 16.5751 0 0
lhand -17.7952 2.36492 0.0655945
lfingers 7.12502 -0 0
lthumb 8.46713 32.1522 0.0600685
rclavicle -4.3035e-14 1.30831e-14 3.88386e-30
rhumerus -45.6368 8.56622 -90.5593
rradius 64.8642 -0 0
rwrist 9.99457 0 0
rhand -23.8282 -18.3831 0.0199257
rfingers 7.12502 -0 0
rthumb 2.64266 -48.2895 0.0210879
